# xmcd
#
# Track frame offsets:
# 150
# 7023
# 16797
# 27954
# 35289
# 46473
#
# Disc length: 849 seconds
#
# Revision: 0
# Processed by: cddbd v1.5.2PL0 Copyright (c) Steve Scherf et al.
# Submitted via: Audion 3.0.2 (http://www.panic.com/audion/)
#
DISCID=3c034f06
DTITLE=Jon Hopkins - Lonesome Tunes
DYEAR=1900
DGENRE=
TTITLE0=One More Round 
TTITLE1=That's Where You'll Always Find Me
TTITLE2=Like an iPhone
TTITLE3=A Quarter for a Bum
TTITLE4='Til My Eyes Run Dry
TTITLE5=No Lonesome Tune
EXTD=
EXTT0=
EXTT1=
EXTT2=
EXTT3=
EXTT4=
EXTT5=
PLAYORDER=
